<svg width="84" height="88" viewBox="0 0 84 88" fill="none" xmlns="http://www.w3.org/2000/svg">
<g style="mix-blend-mode:luminosity" clip-path="url(#clip0)" filter="url(#filter0_d)">
<path d="M9.07892 20.1637C2.43737 30.4805 3.26481 43.9033 8.33747 54.8664C8.45823 55.1294 8.58462 55.3877 8.70938 55.647C8.78885 55.8102 8.86388 55.9784 8.94661 56.1397C8.99308 56.2368 9.04562 56.3315 9.09431 56.4243C9.18104 56.5994 9.26924 56.7651 9.35922 56.936C9.51684 57.236 9.67859 57.5344 9.84346 57.8327C9.93492 57.9967 10.0252 58.1606 10.1195 58.3244C10.3024 58.6437 10.4898 58.9604 10.6817 59.2751C10.7616 59.4096 10.8393 59.5441 10.9213 59.674C11.1858 60.1008 11.4562 60.5268 11.735 60.9447C11.7422 60.9551 11.7502 60.9665 11.7584 60.9769C11.8025 61.0446 11.8514 61.1105 11.896 61.1773C12.1371 61.5372 12.3863 61.892 12.6374 62.2441C12.7301 62.3718 12.8241 62.5 12.9172 62.6283C13.1415 62.9337 13.3702 63.2365 13.6025 63.539C13.6895 63.6518 13.7767 63.7653 13.8646 63.8763C14.1763 64.2729 14.4945 64.6683 14.8201 65.0561C14.8257 65.0631 14.8332 65.0709 14.8393 65.0778C14.8525 65.0943 14.8642 65.1047 14.8759 65.1204C15.1933 65.4951 15.5179 65.8621 15.847 66.2281C15.9488 66.3407 16.0533 66.4544 16.1579 66.5672C16.4128 66.8438 16.6716 67.1154 16.9331 67.3886C17.0394 67.4971 17.1446 67.6089 17.2501 67.7138C17.5996 68.0696 17.9524 68.4181 18.3123 68.7582C18.3187 68.7651 18.3231 68.7704 18.3292 68.7729C18.3901 68.8319 18.4535 68.8884 18.5137 68.943C18.8312 69.2403 19.1538 69.5353 19.4788 69.8251C19.6112 69.9405 19.7452 70.055 19.8785 70.1694C20.1442 70.3994 20.4125 70.6257 20.683 70.8486C20.8258 70.9665 20.9691 71.0845 21.1131 71.2026C21.4113 71.4385 21.7117 71.6733 22.0156 71.9016C22.1264 71.9883 22.2334 72.0715 22.3447 72.154C22.3752 72.1774 22.4033 72.2017 22.4345 72.2241C22.7227 72.4375 23.0167 72.6449 23.3108 72.8505C23.4372 72.9413 23.5628 73.0351 23.6904 73.1235C24.1418 73.4316 24.5997 73.7368 25.0626 74.0327C25.1887 74.1098 25.3154 74.1863 25.4418 74.2634C25.782 74.4758 26.1243 74.6841 26.4718 74.8879C26.6592 74.9972 26.8522 75.1003 27.0412 75.2045C27.2867 75.3441 27.5298 75.4846 27.7786 75.6181C27.8352 75.6493 27.8938 75.6789 27.9496 75.7075C28.049 75.7595 28.1501 75.8109 28.2509 75.8654C28.6368 76.0649 29.0261 76.26 29.4185 76.4499C29.5025 76.4897 29.5831 76.5297 29.6661 76.5688C30.116 76.7812 30.5698 76.9868 31.0289 77.1821C31.1388 77.2297 31.25 77.2756 31.3608 77.3235C31.785 77.4996 32.2148 77.6738 32.646 77.8379C32.7009 77.8587 32.7536 77.8777 32.8076 77.8976C33.2815 78.0772 33.7598 78.2428 34.2417 78.4051C34.3564 78.4416 34.472 78.4816 34.5875 78.5179C35.0779 78.6774 35.5618 78.8674 36.0682 78.9688C68.1861 85.2991 77.5157 58.107 77.5157 58.107C69.6806 69.1405 55.7718 72.0515 42.5939 68.8107C42.0943 68.6893 41.6103 68.521 41.1231 68.3649C40.9993 68.325 40.8781 68.2852 40.7561 68.2444C40.2806 68.0865 39.8091 67.921 39.3401 67.7466C39.2759 67.7223 39.2109 67.6964 39.1455 67.6709C38.7255 67.5115 38.3105 67.3432 37.8967 67.1704C37.7799 67.1202 37.6632 67.0725 37.5468 67.0221C37.0935 66.8288 36.6429 66.6266 36.1986 66.4159C36.1067 66.3741 36.0192 66.33 35.9294 66.2865C35.5471 66.1 35.169 65.9119 34.7915 65.7157C34.6832 65.6586 34.5739 65.6031 34.4632 65.5451C34.1678 65.3897 33.875 65.224 33.5837 65.0618C33.3883 64.9508 33.1897 64.8451 32.9968 64.7296C32.6404 64.5232 32.2905 64.3089 31.9426 64.0904C31.8242 64.0184 31.7051 63.9498 31.5862 63.876C31.1231 63.5812 30.6657 63.2759 30.2131 62.9662C30.0884 62.8804 29.966 62.7885 29.8428 62.7C29.5146 62.4709 29.1875 62.2385 28.8661 61.9973C28.7594 61.921 28.6559 61.836 28.5511 61.7588C28.2401 61.522 27.9328 61.281 27.6274 61.0372C27.4893 60.927 27.3525 60.8125 27.2182 60.7022C26.9385 60.4708 26.6601 60.2384 26.3848 59.9979C26.2608 59.8912 26.136 59.7837 26.0132 59.6761C25.6629 59.3648 25.317 59.0526 24.9752 58.7315C24.9395 58.6968 24.9006 58.6639 24.8616 58.6283C24.4924 58.2771 24.1289 57.917 23.7706 57.5553C23.6663 57.4478 23.5652 57.3437 23.4632 57.2353C23.1973 56.963 22.9361 56.6871 22.6793 56.4052C22.5766 56.2942 22.473 56.184 22.3719 56.0739C22.045 55.7113 21.7243 55.3453 21.4098 54.9732C21.3941 54.955 21.3777 54.9385 21.3625 54.9185C21.0298 54.5255 20.7048 54.124 20.3866 53.718C20.3003 53.607 20.2165 53.4995 20.131 53.3901C19.8939 53.0812 19.6588 52.768 19.4292 52.4516C19.3425 52.3388 19.2564 52.2216 19.1711 52.1055C18.8951 51.7177 18.6247 51.3319 18.3598 50.9379C11.0431 40.1529 8.41457 25.2752 14.262 13.0571" fill="#F3F2F0"/>
<path d="M29.6947 11.4715C24.8917 18.9424 25.1526 28.9416 28.8991 36.8429C29.5275 38.1673 30.2337 39.452 31.0237 40.6758C31.7431 41.7905 32.5405 43.1167 33.4954 44.0117C33.8421 44.4237 34.2037 44.8262 34.5732 45.221C34.6668 45.3251 34.7622 45.4232 34.8577 45.5254C35.216 45.9002 35.5811 46.2705 35.9583 46.6296C35.9739 46.6435 35.9876 46.6598 36.0033 46.6712C36.0073 46.6763 36.0113 46.6782 36.0137 46.6833C36.431 47.0781 36.8618 47.4588 37.2996 47.8327C37.3967 47.9125 37.493 47.9966 37.5913 48.079C38.0298 48.4424 38.4773 48.8007 38.9363 49.1408C38.9499 49.151 38.9616 49.1616 38.9752 49.1738C39.1775 49.3238 39.3841 49.4651 39.5888 49.6101C39.6875 49.6796 39.781 49.7533 39.8802 49.8182C40.2075 50.0448 40.5395 50.266 40.8769 50.4784C40.9246 50.5106 40.9716 50.5365 41.0178 50.5661C41.3086 50.7473 41.6036 50.926 41.8994 51.0986C42.0026 51.1619 42.1076 51.2165 42.2129 51.2755C42.4171 51.391 42.6213 51.5079 42.8295 51.6207C42.8596 51.6364 42.8921 51.6519 42.9222 51.6658C43.3455 51.8912 43.7729 52.1082 44.2086 52.3128C44.3014 52.357 44.3975 52.3968 44.4927 52.4394C44.8406 52.599 45.1929 52.7553 45.546 52.9018C45.6961 52.9634 45.8477 53.0215 45.9978 53.0815C46.3184 53.2099 46.6411 53.3276 46.9657 53.4457C47.1125 53.4959 47.2565 53.5481 47.4035 53.5965C47.8652 53.7509 48.3215 53.9468 48.8029 54.0335C73.6008 58.4747 79.3263 37.8375 79.3263 37.8375C74.165 45.8695 64.1709 49.7044 53.506 46.7118C53.0326 46.5774 52.5658 46.4308 52.1021 46.2729C51.9601 46.2262 51.8205 46.1758 51.6799 46.1254C51.35 46.0101 51.0222 45.887 50.6972 45.7596C50.5483 45.7013 50.3998 45.6425 50.2538 45.5817C49.8975 45.4334 49.5455 45.2806 49.1964 45.1202C49.1013 45.076 49.0046 45.0369 48.9115 44.9901C48.4738 44.7846 48.0428 44.5669 47.6175 44.3413C47.3987 44.2249 47.1841 44.1028 46.9691 43.984C46.8446 43.9138 46.7194 43.8443 46.5947 43.7749C46.3182 43.6126 46.0441 43.4452 45.7733 43.2744C45.7095 43.2346 45.6425 43.1973 45.5775 43.1546C45.2414 42.9422 44.9106 42.7237 44.5831 42.4989C44.482 42.4287 44.385 42.3532 44.2839 42.282C44.0677 42.1304 43.8517 41.9768 43.6398 41.8215C43.1828 41.4816 42.7378 41.1242 42.2996 40.7616C42.1985 40.6757 42.097 40.5915 41.9978 40.5056C37.3292 36.5217 33.6298 31.0771 31.8706 24.9047C30.0268 18.5016 30.4238 11.316 33.6181 5.48364" fill="#F3F2F0"/>
<path d="M47.0334 4.9774C44.2021 9.48094 43.924 15.074 45.8887 20.0484C47.9603 25.3283 52.2057 29.4701 57.1611 31.433C57.3653 31.5154 57.5691 31.5891 57.7766 31.6646C57.8668 31.695 57.9563 31.728 58.0477 31.7566C58.3396 31.8563 58.6297 31.9718 58.9314 32.0332C72.6239 34.893 76.3378 24.4382 77.3266 22.8994C74.0728 27.9623 68.606 29.1777 61.8975 27.4186C61.3674 27.278 60.7848 27.0717 60.2743 26.8756C59.6195 26.624 58.9743 26.336 58.3468 26.0108C57.1559 25.3923 56.0207 24.6412 54.9674 23.7824C48.965 18.8591 45.2354 9.46782 49.1525 1.81897" fill="#F3F2F0"/>
</g>
<defs>
<filter id="filter0_d" x="0" y="0" width="83.7732" height="89.9" filterUnits="userSpaceOnUse" color-interpolation-filters="sRGB">
<feFlood flood-opacity="0" result="BackgroundImageFix"/>
<feColorMatrix in="SourceAlpha" type="matrix" values="0 0 0 0 0 0 0 0 0 0 0 0 0 0 0 0 0 0 127 0"/>
<feOffset dy="4"/>
<feGaussianBlur stdDeviation="2"/>
<feColorMatrix type="matrix" values="0 0 0 0 0 0 0 0 0 0 0 0 0 0 0 0 0 0 0.25 0"/>
<feBlend mode="normal" in2="BackgroundImageFix" result="effect1_dropShadow"/>
<feBlend mode="normal" in="SourceGraphic" in2="effect1_dropShadow" result="shape"/>
</filter>
<clipPath id="clip0">
<rect width="75.7732" height="81.9" fill="white" transform="translate(4)"/>
</clipPath>
</defs>
</svg>
